<svg data-v-423bf9ae="" xmlns="http://www.w3.org/2000/svg" viewBox="0 0 150.2503908690819 60" class="font"><!----><!----><!----><g data-v-423bf9ae="" id="44b78d3d-1069-4a82-b4bc-8b2b0077984f" fill="black" transform="matrix(5.488223075866699,0,0,5.488223075866699,-6.146811485290527,-0.7683495879173279)"><path d="M6.43 2.23L6.43 2.23L3.46 2.23C3.19 2.23 2.98 2.42 2.98 2.69L2.98 4.56C2.98 4.82 3.19 5.03 3.46 5.03L5.56 5.03C5.81 5.03 6.02 4.82 6.02 4.56C6.02 4.30 5.81 4.09 5.56 4.09L3.92 4.09L3.92 3.15L6.43 3.15C6.69 3.15 6.90 2.94 6.90 2.69C6.90 2.42 6.69 2.23 6.43 2.23ZM5.56 5.96L5.56 5.96L3.46 5.96C3.19 5.96 2.98 6.17 2.98 6.43L2.98 10.18C2.98 10.43 3.19 10.64 3.46 10.64C3.71 10.64 3.92 10.43 3.92 10.18L3.92 6.90L5.56 6.90C5.81 6.90 6.02 6.69 6.02 6.43C6.02 6.17 5.81 5.96 5.56 5.96ZM2.04 10.18L2.04 10.18L2.04 1.29L6.43 1.29C6.69 1.29 6.90 1.08 6.90 0.81C6.90 0.56 6.69 0.35 6.43 0.35L1.58 0.35C1.32 0.35 1.12 0.56 1.12 0.81L1.12 10.18C1.12 10.43 1.32 10.64 1.58 10.64C1.83 10.64 2.04 10.43 2.04 10.18ZM18.70 3.88L18.70 3.88C18.35 2.77 17.65 1.83 16.74 1.16C15.83 0.52 14.74 0.14 13.54 0.14C6.44 0.14 6.44 10.82 13.54 10.82C14.74 10.82 15.83 10.43 16.74 9.79C17.65 9.13 18.35 8.18 18.70 7.08C18.77 6.83 18.65 6.55 18.40 6.48C18.14 6.41 17.86 6.54 17.79 6.79C17.50 7.70 16.94 8.47 16.17 9.02C15.44 9.55 14.53 9.86 13.54 9.86C7.70 9.86 7.70 1.09 13.54 1.09C14.53 1.09 15.44 1.41 16.17 1.93C16.94 2.49 17.50 3.26 17.79 4.16C17.86 4.41 18.14 4.55 18.40 4.47C18.65 4.40 18.77 4.13 18.70 3.88ZM10.65 7.17L10.65 7.17C10.95 7.69 11.37 8.12 11.87 8.43C12.38 8.71 12.95 8.88 13.54 8.88C14.48 8.88 15.32 8.50 15.93 7.87C16.52 7.25 16.90 6.41 16.90 5.47C16.90 4.54 16.52 3.70 15.93 3.08C15.32 2.46 14.48 2.09 13.54 2.09C12.95 2.09 12.38 2.24 11.87 2.53C11.37 2.83 10.95 3.26 10.65 3.78C10.51 4.02 10.60 4.31 10.82 4.44C11.06 4.56 11.34 4.48 11.47 4.24C11.69 3.88 12.00 3.57 12.36 3.36C12.71 3.15 13.10 3.04 13.54 3.04C14.21 3.04 14.81 3.32 15.23 3.75C15.68 4.19 15.95 4.80 15.95 5.47C15.95 6.16 15.68 6.78 15.23 7.21C14.81 7.66 14.21 7.92 13.54 7.92C13.10 7.92 12.70 7.80 12.36 7.59C12.00 7.39 11.69 7.07 11.47 6.71C11.34 6.47 11.06 6.40 10.82 6.52C10.60 6.66 10.51 6.93 10.65 7.17ZM21.74 0.99L21.74 0.99L23.60 5.60C23.77 5.98 24.32 5.98 24.47 5.60L26.36 0.99C26.45 0.74 26.33 0.49 26.10 0.38C25.86 0.29 25.58 0.41 25.49 0.64L24.05 4.19L22.60 0.64C22.50 0.41 22.23 0.29 21.98 0.38C21.76 0.49 21.63 0.74 21.74 0.99ZM27.61 0.64L27.61 0.64L24.05 9.38L20.48 0.64C20.38 0.41 20.12 0.29 19.88 0.38C19.63 0.49 19.53 0.74 19.61 0.99L23.60 10.78C23.77 11.17 24.30 11.17 24.47 10.78L28.46 0.99C28.56 0.74 28.45 0.49 28.21 0.38C27.99 0.29 27.71 0.41 27.61 0.64Z"></path></g><!----><!----></svg>